<?xml version="1.0" encoding="UTF-8"?>
<!DOCTYPE svg PUBLIC "-//W3C//DTD SVG 1.1//EN" "http://www.w3.org/Graphics/SVG/1.1/DTD/svg11.dtd">
<!-- Creator: CorelDRAW -->
<svg xmlns="http://www.w3.org/2000/svg" xml:space="preserve" width="1920px" height="892px" version="1.1" style="shape-rendering:geometricPrecision; text-rendering:geometricPrecision; image-rendering:optimizeQuality; fill-rule:evenodd; clip-rule:evenodd"
viewBox="0 0 486.52 226.11"
 xmlns:xlink="http://www.w3.org/1999/xlink"
 xmlns:xodm="http://www.corel.com/coreldraw/odm/2003">
 <defs>
  <style type="text/css">
   <![CDATA[
    .fil0 {fill:white;fill-rule:nonzero}
   ]]>
  </style>
 </defs>
 <g id="Capa_x0020_1">
  <metadata id="CorelCorpID_0Corel-Layer"/>
  <polygon class="fil0" points="152.33,38.16 98.16,38.16 65.57,226.11 20.83,226.11 53.43,38.16 0,38.16 6.68,0 159.01,0 "/>
  <polygon id="_1" class="fil0" points="277,128.48 208.09,128.48 197.65,188.27 279.33,188.27 272.65,226.11 146.55,226.11 185.72,0 311.66,0 304.98,38.16 223.73,38.16 214.45,91.59 283.52,91.59 "/>
  <polygon id="_2" class="fil0" points="392.39,77.33 433.89,0 486.52,0 416.29,114.17 450.64,226.11 400.65,226.11 383.11,147.4 340.87,226.11 287.6,226.11 359.31,110.25 325.81,0 375,0 "/>
 </g>
</svg>
